<?xml version="1.0" encoding="UTF-8" standalone="no"?>
<!DOCTYPE svg PUBLIC "-//W3C//DTD SVG 1.1//EN"
 "http://www.w3.org/Graphics/SVG/1.1/DTD/svg11.dtd">
<!-- Generated by graphviz version 2.38.0 (20140413.2041)
 -->
<!-- Title: %3 Pages: 1 -->
<svg width="144pt" height="188pt"
 viewBox="0.00 0.00 144.00 188.00" xmlns="http://www.w3.org/2000/svg" xmlns:xlink="http://www.w3.org/1999/xlink">
<g id="graph0" class="graph" transform="scale(1 1) rotate(0) translate(4 184)">
<title>%3</title>
<polygon fill="white" stroke="none" points="-4,4 -4,-184 140,-184 140,4 -4,4"/>
<!-- D -->
<g id="node1" class="node"><title>D</title>
<ellipse fill="none" stroke="black" cx="91" cy="-162" rx="27" ry="18"/>
<text text-anchor="middle" x="91" y="-158.3" font-family="Times,serif" font-size="14.00">D</text>
</g>
<!-- D&#45;&gt;D -->
<g id="edge6" class="edge"><title>D&#45;&gt;D</title>
<path fill="none" stroke="green" d="M110.895,-174.432C123.688,-177.675 136,-173.531 136,-162 136,-153.622 129.501,-149.143 121.039,-148.564"/>
<polygon fill="green" stroke="green" points="120.502,-145.1 110.895,-149.568 121.191,-152.066 120.502,-145.1"/>
</g>
<!-- B -->
<g id="node2" class="node"><title>B</title>
<ellipse fill="none" stroke="black" cx="27" cy="-90" rx="27" ry="18"/>
<text text-anchor="middle" x="27" y="-86.3" font-family="Times,serif" font-size="14.00">B</text>
</g>
<!-- D&#45;&gt;B -->
<g id="edge1" class="edge"><title>D&#45;&gt;B</title>
<path fill="none" stroke="red" d="M77.4272,-146.155C68.6875,-136.596 57.1659,-123.994 47.3422,-113.249"/>
<polygon fill="red" stroke="red" points="49.884,-110.842 40.5532,-105.824 44.7178,-115.566 49.884,-110.842"/>
</g>
<!-- C -->
<g id="node3" class="node"><title>C</title>
<ellipse fill="none" stroke="black" cx="59" cy="-18" rx="27" ry="18"/>
<text text-anchor="middle" x="59" y="-14.3" font-family="Times,serif" font-size="14.00">C</text>
</g>
<!-- D&#45;&gt;C -->
<g id="edge3" class="edge"><title>D&#45;&gt;C</title>
<path fill="none" stroke="red" d="M82.8352,-144.711C74.783,-120.705 64.2806,-75.5254 59.7108,-46.372"/>
<polygon fill="red" stroke="red" points="63.1705,-45.84 58.3112,-36.4253 56.2388,-46.8155 63.1705,-45.84"/>
</g>
<!-- B&#45;&gt;C -->
<g id="edge4" class="edge"><title>B&#45;&gt;C</title>
<path fill="none" stroke="green" d="M28.9944,-71.6966C32.0471,-63.073 36.7003,-52.5044 41.5319,-43.1015"/>
<polygon fill="green" stroke="green" points="44.6685,-44.6597 46.3703,-34.2024 38.5187,-41.3161 44.6685,-44.6597"/>
</g>
<!-- C&#45;&gt;D -->
<g id="edge5" class="edge"><title>C&#45;&gt;D</title>
<path fill="none" stroke="red" d="M67.1724,-35.3119C75.2528,-59.4108 85.797,-104.811 90.3386,-133.944"/>
<polygon fill="red" stroke="red" points="86.8754,-134.451 91.7245,-143.871 93.8082,-133.484 86.8754,-134.451"/>
</g>
<!-- C&#45;&gt;B -->
<g id="edge2" class="edge"><title>C&#45;&gt;B</title>
<path fill="none" stroke="green" d="M57.068,-36.1267C54.0205,-44.7712 49.3449,-55.4038 44.487,-64.8617"/>
<polygon fill="green" stroke="green" points="41.3231,-63.3537 39.6219,-73.811 47.4731,-66.697 41.3231,-63.3537"/>
</g>
</g>
</svg>
