<?xml version="1.0" encoding="UTF-8" standalone="no"?>
<!DOCTYPE svg PUBLIC "-//W3C//DTD SVG 1.1//EN"
 "http://www.w3.org/Graphics/SVG/1.1/DTD/svg11.dtd">
<!-- Generated by graphviz version 2.38.0 (20140413.2041)
 -->
<!-- Title: %3 Pages: 1 -->
<svg width="94pt" height="188pt"
 viewBox="0.00 0.00 94.00 188.00" xmlns="http://www.w3.org/2000/svg" xmlns:xlink="http://www.w3.org/1999/xlink">
<g id="graph0" class="graph" transform="scale(1 1) rotate(0) translate(4 184)">
<title>%3</title>
<polygon fill="white" stroke="none" points="-4,4 -4,-184 90,-184 90,4 -4,4"/>
<!-- D -->
<g id="node1" class="node"><title>D</title>
<ellipse fill="none" stroke="black" cx="59" cy="-162" rx="27" ry="18"/>
<text text-anchor="middle" x="59" y="-158.3" font-family="Times,serif" font-size="14.00">D</text>
</g>
<!-- B -->
<g id="node2" class="node"><title>B</title>
<ellipse fill="none" stroke="black" cx="27" cy="-90" rx="27" ry="18"/>
<text text-anchor="middle" x="27" y="-86.3" font-family="Times,serif" font-size="14.00">B</text>
</g>
<!-- D&#45;&gt;B -->
<g id="edge1" class="edge"><title>D&#45;&gt;B</title>
<path fill="none" stroke="red" d="M46.3781,-145.811C41.6095,-137.574 36.5475,-127.155 32.5931,-117.618"/>
<polygon fill="red" stroke="red" points="35.7966,-116.197 28.932,-108.127 29.2656,-118.716 35.7966,-116.197"/>
</g>
<!-- C -->
<g id="node3" class="node"><title>C</title>
<ellipse fill="none" stroke="black" cx="59" cy="-18" rx="27" ry="18"/>
<text text-anchor="middle" x="59" y="-14.3" font-family="Times,serif" font-size="14.00">C</text>
</g>
<!-- D&#45;&gt;C -->
<g id="edge3" class="edge"><title>D&#45;&gt;C</title>
<path fill="none" stroke="red" d="M52.8172,-144.309C52.4922,-133.882 53.5413,-120.172 54,-108 54.6025,-92.0113 54.6025,-87.9887 54,-72 53.6775,-63.4417 53.0631,-54.1227 52.8397,-45.7193"/>
<polygon fill="red" stroke="red" points="56.3397,-45.6832 52.8172,-35.691 49.3397,-45.6989 56.3397,-45.6832"/>
</g>
<!-- B&#45;&gt;D -->
<g id="edge5" class="edge"><title>B&#45;&gt;D</title>
<path fill="none" stroke="green" d="M39.6297,-106.202C44.3724,-114.396 49.4045,-124.747 53.3479,-134.24"/>
<polygon fill="green" stroke="green" points="50.1337,-135.633 57.0056,-143.697 56.6623,-133.107 50.1337,-135.633"/>
</g>
<!-- B&#45;&gt;C -->
<g id="edge4" class="edge"><title>B&#45;&gt;C</title>
<path fill="none" stroke="green" d="M28.9944,-71.6966C32.0471,-63.073 36.7003,-52.5044 41.5319,-43.1015"/>
<polygon fill="green" stroke="green" points="44.6685,-44.6597 46.3703,-34.2024 38.5187,-41.3161 44.6685,-44.6597"/>
</g>
<!-- C&#45;&gt;D -->
<g id="edge6" class="edge"><title>C&#45;&gt;D</title>
<path fill="none" stroke="green" d="M68.2515,-35.2194C70.4603,-45.7017 71.5344,-59.6438 72,-72 72.6025,-87.9887 72.6025,-92.0113 72,-108 71.6726,-116.688 71.0444,-126.16 69.9324,-134.662"/>
<polygon fill="green" stroke="green" points="66.4377,-134.342 68.2515,-144.781 73.3431,-135.489 66.4377,-134.342"/>
</g>
<!-- C&#45;&gt;B -->
<g id="edge2" class="edge"><title>C&#45;&gt;B</title>
<path fill="none" stroke="green" d="M57.068,-36.1267C54.0205,-44.7712 49.3449,-55.4038 44.487,-64.8617"/>
<polygon fill="green" stroke="green" points="41.3231,-63.3537 39.6219,-73.811 47.4731,-66.697 41.3231,-63.3537"/>
</g>
</g>
</svg>
