<?xml version="1.0" encoding="UTF-8" standalone="no"?>
<!DOCTYPE svg PUBLIC "-//W3C//DTD SVG 1.1//EN"
 "http://www.w3.org/Graphics/SVG/1.1/DTD/svg11.dtd">
<!-- Generated by graphviz version 2.38.0 (20140413.2041)
 -->
<!-- Title: %3 Pages: 1 -->
<svg width="144pt" height="188pt"
 viewBox="0.00 0.00 144.00 188.00" xmlns="http://www.w3.org/2000/svg" xmlns:xlink="http://www.w3.org/1999/xlink">
<g id="graph0" class="graph" transform="scale(1 1) rotate(0) translate(4 184)">
<title>%3</title>
<polygon fill="white" stroke="none" points="-4,4 -4,-184 140,-184 140,4 -4,4"/>
<!-- B -->
<g id="node1" class="node"><title>B</title>
<ellipse fill="none" stroke="black" cx="27" cy="-162" rx="27" ry="18"/>
<text text-anchor="middle" x="27" y="-158.3" font-family="Times,serif" font-size="14.00">B</text>
</g>
<!-- B&#45;&gt;B -->
<g id="edge1" class="edge"><title>B&#45;&gt;B</title>
<path fill="none" stroke="red" d="M46.895,-174.432C59.688,-177.675 72,-173.531 72,-162 72,-153.622 65.5006,-149.143 57.0395,-148.564"/>
<polygon fill="red" stroke="red" points="56.5019,-145.1 46.895,-149.568 57.191,-152.066 56.5019,-145.1"/>
</g>
<!-- C -->
<g id="node2" class="node"><title>C</title>
<ellipse fill="none" stroke="black" cx="27" cy="-18" rx="27" ry="18"/>
<text text-anchor="middle" x="27" y="-14.3" font-family="Times,serif" font-size="14.00">C</text>
</g>
<!-- B&#45;&gt;C -->
<g id="edge4" class="edge"><title>B&#45;&gt;C</title>
<path fill="none" stroke="green" d="M22.4455,-144.153C19.8491,-119.92 19.5556,-74.9646 21.565,-46.0463"/>
<polygon fill="green" stroke="green" points="25.0742,-46.0891 22.4478,-35.825 18.1002,-45.4866 25.0742,-46.0891"/>
</g>
<!-- D -->
<g id="node3" class="node"><title>D</title>
<ellipse fill="none" stroke="black" cx="91" cy="-90" rx="27" ry="18"/>
<text text-anchor="middle" x="91" y="-86.3" font-family="Times,serif" font-size="14.00">D</text>
</g>
<!-- B&#45;&gt;D -->
<g id="edge5" class="edge"><title>B&#45;&gt;D</title>
<path fill="none" stroke="red" d="M40.5728,-146.155C49.3125,-136.596 60.8341,-123.994 70.6578,-113.249"/>
<polygon fill="red" stroke="red" points="73.2822,-115.566 77.4468,-105.824 68.116,-110.842 73.2822,-115.566"/>
</g>
<!-- C&#45;&gt;B -->
<g id="edge2" class="edge"><title>C&#45;&gt;B</title>
<path fill="none" stroke="green" d="M31.5522,-35.825C34.15,-60.0457 34.4448,-105 32.4369,-133.928"/>
<polygon fill="green" stroke="green" points="28.9272,-133.889 31.5545,-144.153 35.9013,-134.491 28.9272,-133.889"/>
</g>
<!-- D&#45;&gt;C -->
<g id="edge3" class="edge"><title>D&#45;&gt;C</title>
<path fill="none" stroke="red" d="M77.4272,-74.1548C68.6875,-64.5957 57.1659,-51.994 47.3422,-41.2493"/>
<polygon fill="red" stroke="red" points="49.884,-38.8424 40.5532,-33.8238 44.7178,-43.5658 49.884,-38.8424"/>
</g>
<!-- D&#45;&gt;D -->
<g id="edge6" class="edge"><title>D&#45;&gt;D</title>
<path fill="none" stroke="green" d="M110.895,-102.432C123.688,-105.675 136,-101.531 136,-90 136,-81.6218 129.501,-77.1433 121.039,-76.5644"/>
<polygon fill="green" stroke="green" points="120.502,-73.1004 110.895,-77.5679 121.191,-80.0665 120.502,-73.1004"/>
</g>
</g>
</svg>
