<?xml version="1.0" encoding="UTF-8" standalone="no"?>
<!DOCTYPE svg PUBLIC "-//W3C//DTD SVG 1.1//EN"
 "http://www.w3.org/Graphics/SVG/1.1/DTD/svg11.dtd">
<!-- Generated by graphviz version 2.38.0 (20140413.2041)
 -->
<!-- Title: %3 Pages: 1 -->
<svg width="98pt" height="188pt"
 viewBox="0.00 0.00 98.00 188.00" xmlns="http://www.w3.org/2000/svg" xmlns:xlink="http://www.w3.org/1999/xlink">
<g id="graph0" class="graph" transform="scale(1 1) rotate(0) translate(4 184)">
<title>%3</title>
<polygon fill="white" stroke="none" points="-4,4 -4,-184 94,-184 94,4 -4,4"/>
<!-- B -->
<g id="node1" class="node"><title>B</title>
<ellipse fill="none" stroke="black" cx="27" cy="-162" rx="27" ry="18"/>
<text text-anchor="middle" x="27" y="-158.3" font-family="Times,serif" font-size="14.00">B</text>
</g>
<!-- B&#45;&gt;B -->
<g id="edge1" class="edge"><title>B&#45;&gt;B</title>
<path fill="none" stroke="red" d="M46.895,-174.432C59.688,-177.675 72,-173.531 72,-162 72,-153.622 65.5006,-149.143 57.0395,-148.564"/>
<polygon fill="red" stroke="red" points="56.5019,-145.1 46.895,-149.568 57.191,-152.066 56.5019,-145.1"/>
</g>
<!-- C -->
<g id="node2" class="node"><title>C</title>
<ellipse fill="none" stroke="black" cx="27" cy="-90" rx="27" ry="18"/>
<text text-anchor="middle" x="27" y="-86.3" font-family="Times,serif" font-size="14.00">C</text>
</g>
<!-- B&#45;&gt;C -->
<g id="edge4" class="edge"><title>B&#45;&gt;C</title>
<path fill="none" stroke="green" d="M21.1601,-144.411C20.2975,-136.507 20.0481,-126.852 20.4119,-117.935"/>
<polygon fill="green" stroke="green" points="23.9033,-118.179 21.1206,-107.956 16.9209,-117.683 23.9033,-118.179"/>
</g>
<!-- D -->
<g id="node3" class="node"><title>D</title>
<ellipse fill="none" stroke="black" cx="63" cy="-18" rx="27" ry="18"/>
<text text-anchor="middle" x="63" y="-14.3" font-family="Times,serif" font-size="14.00">D</text>
</g>
<!-- B&#45;&gt;D -->
<g id="edge5" class="edge"><title>B&#45;&gt;D</title>
<path fill="none" stroke="green" d="M45.5615,-148.863C58.1787,-139.422 73.8321,-125.079 81,-108 89.5448,-87.6406 83.3514,-62.9181 75.9892,-44.701"/>
<polygon fill="green" stroke="green" points="79.0933,-43.0649 71.865,-35.3188 72.6851,-45.8818 79.0933,-43.0649"/>
</g>
<!-- C&#45;&gt;B -->
<g id="edge2" class="edge"><title>C&#45;&gt;B</title>
<path fill="none" stroke="green" d="M32.8794,-107.956C33.7139,-115.827 33.9485,-125.374 33.5831,-134.187"/>
<polygon fill="green" stroke="green" points="30.0742,-134.184 32.8399,-144.411 37.0558,-134.691 30.0742,-134.184"/>
</g>
<!-- C&#45;&gt;C -->
<g id="edge3" class="edge"><title>C&#45;&gt;C</title>
<path fill="none" stroke="red" d="M46.895,-102.432C59.688,-105.675 72,-101.531 72,-90 72,-81.6218 65.5006,-77.1433 57.0395,-76.5644"/>
<polygon fill="red" stroke="red" points="56.5019,-73.1004 46.895,-77.5679 57.191,-80.0665 56.5019,-73.1004"/>
</g>
<!-- C&#45;&gt;D -->
<g id="edge6" class="edge"><title>C&#45;&gt;D</title>
<path fill="none" stroke="green" d="M35.3496,-72.7646C39.7115,-64.2831 45.1469,-53.7144 50.0413,-44.1974"/>
<polygon fill="green" stroke="green" points="53.2346,-45.6409 54.6957,-35.1473 47.0096,-42.4395 53.2346,-45.6409"/>
</g>
</g>
</svg>
