<?xml version="1.0" encoding="UTF-8" standalone="no"?>
<!DOCTYPE svg PUBLIC "-//W3C//DTD SVG 1.1//EN"
 "http://www.w3.org/Graphics/SVG/1.1/DTD/svg11.dtd">
<!-- Generated by graphviz version 2.38.0 (20140413.2041)
 -->
<!-- Title: %3 Pages: 1 -->
<svg width="170pt" height="116pt"
 viewBox="0.00 0.00 170.00 116.00" xmlns="http://www.w3.org/2000/svg" xmlns:xlink="http://www.w3.org/1999/xlink">
<g id="graph0" class="graph" transform="scale(1 1) rotate(0) translate(4 112)">
<title>%3</title>
<polygon fill="white" stroke="none" points="-4,4 -4,-112 166,-112 166,4 -4,4"/>
<!-- B -->
<g id="node1" class="node"><title>B</title>
<ellipse fill="none" stroke="black" cx="27" cy="-90" rx="27" ry="18"/>
<text text-anchor="middle" x="27" y="-86.3" font-family="Times,serif" font-size="14.00">B</text>
</g>
<!-- B&#45;&gt;B -->
<g id="edge1" class="edge"><title>B&#45;&gt;B</title>
<path fill="none" stroke="red" d="M46.895,-102.432C59.688,-105.675 72,-101.531 72,-90 72,-81.6218 65.5006,-77.1433 57.0395,-76.5644"/>
<polygon fill="red" stroke="red" points="56.5019,-73.1004 46.895,-77.5679 57.191,-80.0665 56.5019,-73.1004"/>
</g>
<!-- C -->
<g id="node2" class="node"><title>C</title>
<ellipse fill="none" stroke="black" cx="27" cy="-18" rx="27" ry="18"/>
<text text-anchor="middle" x="27" y="-14.3" font-family="Times,serif" font-size="14.00">C</text>
</g>
<!-- B&#45;&gt;C -->
<g id="edge4" class="edge"><title>B&#45;&gt;C</title>
<path fill="none" stroke="green" d="M21.1601,-72.411C20.2975,-64.507 20.0481,-54.8518 20.4119,-45.9352"/>
<polygon fill="green" stroke="green" points="23.9033,-46.1791 21.1206,-35.9562 16.9209,-45.6831 23.9033,-46.1791"/>
</g>
<!-- D -->
<g id="node3" class="node"><title>D</title>
<ellipse fill="none" stroke="black" cx="117" cy="-18" rx="27" ry="18"/>
<text text-anchor="middle" x="117" y="-14.3" font-family="Times,serif" font-size="14.00">D</text>
</g>
<!-- B&#45;&gt;D -->
<g id="edge5" class="edge"><title>B&#45;&gt;D</title>
<path fill="none" stroke="red" d="M43.9283,-75.8335C57.5047,-65.2741 76.757,-50.3001 92.0921,-38.3728"/>
<polygon fill="red" stroke="red" points="94.4029,-41.0096 100.148,-32.1074 90.1052,-35.4841 94.4029,-41.0096"/>
</g>
<!-- C&#45;&gt;B -->
<g id="edge2" class="edge"><title>C&#45;&gt;B</title>
<path fill="none" stroke="green" d="M32.8794,-35.9562C33.7139,-43.8272 33.9485,-53.3739 33.5831,-62.1869"/>
<polygon fill="green" stroke="green" points="30.0742,-62.1835 32.8399,-72.411 37.0558,-62.6911 30.0742,-62.1835"/>
</g>
<!-- C&#45;&gt;C -->
<g id="edge3" class="edge"><title>C&#45;&gt;C</title>
<path fill="none" stroke="red" d="M46.895,-30.4321C59.688,-33.6753 72,-29.5312 72,-18 72,-9.62183 65.5006,-5.14331 57.0395,-4.56444"/>
<polygon fill="red" stroke="red" points="56.5019,-1.10045 46.895,-5.56787 57.191,-8.06645 56.5019,-1.10045"/>
</g>
<!-- D&#45;&gt;D -->
<g id="edge6" class="edge"><title>D&#45;&gt;D</title>
<path fill="none" stroke="green" d="M136.895,-30.4321C149.688,-33.6753 162,-29.5312 162,-18 162,-9.62183 155.501,-5.14331 147.039,-4.56444"/>
<polygon fill="green" stroke="green" points="146.502,-1.10045 136.895,-5.56787 147.191,-8.06645 146.502,-1.10045"/>
</g>
</g>
</svg>
